# xmcd
#
# Track frame offsets: 
#        150
#        18583
#        36005
#        54598
#        71710
#        88870
#        104607
#        121744
#        143983
#        174633
#        199978
#        219799
#
# Disc length: 3244 seconds
#
# Revision: 2
# Processed by: cddbd v1.5.2PL0 Copyright (c) Steve Scherf et al.
# Submitted via: ExactAudioCopy v1.0b1
#
DISCID=af0caa0c
DTITLE=Русский Размер и Дмитрий Нагиев - Серебро
DYEAR=2006
DGENRE=Pop
TTITLE0=Здорова
TTITLE1=Делай дело
TTITLE2=Моды
TTITLE3=Вопросы
TTITLE4=Лирика
TTITLE5=Родина
TTITLE6=До свидания
TTITLE7=Ю-А-Ю (Club Line Mix from Lotos)
TTITLE8=Вот так (Club Line Mix from Lotos)
TTITLE9=Ангел дня (Club Line Mix from Lotos)
TTITLE10=Звезда разлуки (Club Line Mix from Lotos)
TTITLE11=Весна (Club Line Mix from Lotos)
EXTD=YEAR: 2006
EXTT0=
EXTT1=
EXTT2=
EXTT3=
EXTT4=
EXTT5=
EXTT6=
EXTT7=
EXTT8=
EXTT9=
EXTT10=
EXTT11=
PLAYORDER=
